<?xml version="1.0" encoding="UTF-8"?>
<svg width="24px" height="24px" viewBox="0 0 24 24" version="1.1" xmlns="http://www.w3.org/2000/svg" xmlns:xlink="http://www.w3.org/1999/xlink">
    <title>切片</title>
    <defs>
        <polygon id="path-1" points="0.0025 1.6816 19.8375 1.6816 19.8375 16 0.0025 16"></polygon>
    </defs>
    <g id="网页-dark版" stroke="none" stroke-width="1" fill="none" fill-rule="evenodd">
        <g id="捉虫活动/light/积分排名/月榜单未选日期" transform="translate(-1536.000000, -28.000000)">
            <g id="icon/24/导航搜索" transform="translate(1536.000000, 28.000000)">
                <g id="编组" transform="translate(2.000000, 3.000000)">
                    <mask id="mask-2" fill="white">
                        <use xlink:href="#path-1"></use>
                    </mask>
                    <g id="Clip-2"></g>
                    <path d="M10.6775,4.8816 L10.6775,4.8816 C10.6775,5.3296 10.3375,5.6976 9.9125,5.6976 C9.4975,5.6976 9.1475,5.3296 9.1475,4.8816 L9.1475,2.50293333 C9.1475,2.0496 9.4975,1.6816 9.9125,1.6816 C10.3375,1.6816 10.6775,2.0496 10.6775,2.50293333 L10.6775,4.8816 Z M15.3525,7.62826667 L15.3525,7.62826667 L16.9325,5.9376 C17.2375,5.62293333 17.2375,5.1056 16.9325,4.79093333 C16.6425,4.4656 16.1525,4.4656 15.8625,4.79093333 L14.2775,6.47093333 C13.9775,6.7856 13.9775,7.30293333 14.2775,7.62826667 C14.5725,7.94293333 15.0575,7.94293333 15.3525,7.62826667 L15.3525,7.62826667 Z M16.8475,13.0896 L16.8475,13.0896 L19.0775,13.0896 C19.5025,13.0896 19.8375,12.7162667 19.8375,12.2789333 C19.8375,11.8149333 19.5025,11.4576 19.0775,11.4576 L16.8475,11.4576 C16.4175,11.4576 16.0775,11.8149333 16.0775,12.2789333 C16.0775,12.7162667 16.4175,13.0896 16.8475,13.0896 L16.8475,13.0896 Z M2.9875,11.4576 L2.9875,11.4576 L0.7575,11.4576 C0.3375,11.4576 0.0025,11.8149333 0.0025,12.2789333 C0.0025,12.7162667 0.3375,13.0896 0.7575,13.0896 L2.9875,13.0896 C3.4075,13.0896 3.7475,12.7162667 3.7475,12.2789333 C3.7475,11.8149333 3.4075,11.4576 2.9875,11.4576 L2.9875,11.4576 Z M5.5575,6.47093333 L5.5575,6.47093333 L3.9875,4.79093333 C3.6825,4.4656 3.1975,4.4656 2.8975,4.79093333 C2.6025,5.1056 2.6025,5.62293333 2.8975,5.9376 L4.4875,7.62293333 C4.7775,7.93226667 5.2625,7.93226667 5.5575,7.62293333 C5.8575,7.30293333 5.8575,6.7856 5.5575,6.47093333 L5.5575,6.47093333 Z M13.4125,14.3696 L13.4125,14.3696 C13.7375,13.7456 13.9225,13.0362667 13.9225,12.2789333 C13.9225,11.0949333 13.4775,10.0229333 12.7525,9.2496 C12.0275,8.47626667 11.0275,7.99626667 9.9125,7.99626667 C8.8075,7.99626667 7.8025,8.47626667 7.0875,9.2496 C6.3575,10.0229333 5.9025,11.0949333 5.9025,12.2789333 C5.9025,13.0362667 6.0975,13.7456 6.4175,14.3696 L13.4125,14.3696 Z M9.9125,6.36426667 C11.4425,6.36426667 12.8275,7.03093333 13.8225,8.0976 C14.8325,9.16426667 15.4525,10.6469333 15.4525,12.2789333 C15.4525,13.0096 15.3325,13.7189333 15.0925,14.3696 L18.4625,14.3696 C18.8925,14.3696 19.2325,14.7269333 19.2325,15.1909333 C19.2325,15.6389333 18.8925,16.0016 18.4625,16.0016 L1.3675,16.0016 C0.9475,16.0016 0.6075,15.6389333 0.6075,15.1909333 C0.6075,14.7269333 0.9475,14.3696 1.3675,14.3696 L4.7375,14.3696 C4.5075,13.7189333 4.3775,13.0096 4.3775,12.2789333 C4.3775,10.6469333 5.0075,9.16426667 6.0025,8.0976 C6.9975,7.03093333 8.3875,6.36426667 9.9125,6.36426667 L9.9125,6.36426667 Z" id="Fill-1" fill="#FFFFFF" mask="url(#mask-2)"></path>
                </g>
            </g>
        </g>
    </g>
</svg>