<?xml version="1.0" encoding="UTF-8"?>
<svg width="24px" height="24px" viewBox="0 0 24 24" version="1.1" xmlns="http://www.w3.org/2000/svg" xmlns:xlink="http://www.w3.org/1999/xlink">
    <title>切片</title>
    <defs>
        <polygon id="path-1" points="0.0025 0.00045 15.64 0.00045 15.64 16.16395 0.0025 16.16395"></polygon>
    </defs>
    <g id="网页-light版" stroke="none" stroke-width="1" fill="none" fill-rule="evenodd">
        <g id="捉虫活动/light/积分排名/月榜单未选日期" transform="translate(-1536.000000, -28.000000)">
            <g id="icon/24/导航搜索" transform="translate(1536.000000, 28.000000)">
                <g id="编组" transform="translate(4.000000, 4.000000)">
                    <mask id="mask-2" fill="white">
                        <use xlink:href="#path-1"></use>
                    </mask>
                    <g id="Clip-2"></g>
                    <path d="M6.2625,2.56895 L6.2625,2.56895 C6.4625,2.24395 6.6875,1.91895 6.9525,1.62895 C5.5925,1.86395 4.3825,2.51395 3.4425,3.44395 C2.2575,4.63395 1.5325,6.27395 1.5325,8.08395 C1.5325,9.89395 2.2575,11.53395 3.4425,12.71895 C4.6325,13.91395 6.2675,14.63895 8.0775,14.63895 C9.4425,14.63895 10.7075,14.22895 11.7625,13.51895 C12.2525,13.18395 12.7125,12.77395 13.1025,12.29895 C12.7025,12.37395 12.2925,12.41895 11.8625,12.41895 C10.0725,12.41895 8.4375,11.68895 7.2525,10.50895 C6.0825,9.32895 5.3375,7.70395 5.3375,5.89895 C5.3375,4.68895 5.6825,3.54895 6.2625,2.56895 M8.0775,-0.00105 C8.2625,-0.00105 8.4575,0.00895 8.6625,0.02395 C8.8575,0.03895 9.0425,0.05895 9.2325,0.07895 C9.6475,0.14395 9.9375,0.52895 9.8825,0.94395 C9.8425,1.20895 9.6825,1.41895 9.4525,1.52395 C8.6825,1.95895 8.0225,2.58895 7.5675,3.34895 C7.1225,4.09395 6.8775,4.97395 6.8775,5.89895 C6.8775,7.27895 7.4325,8.52395 8.3375,9.43395 C9.2375,10.32895 10.4925,10.88895 11.8625,10.88895 C12.3375,10.88895 12.8025,10.82395 13.2375,10.70395 C13.6725,10.58395 14.0875,10.38895 14.4825,10.16395 C14.8325,9.93895 15.3025,10.04395 15.5325,10.39895 C15.6625,10.61895 15.6725,10.86895 15.5875,11.08395 C14.9775,12.58895 13.9325,13.87895 12.6075,14.77895 L12.6075,14.78395 C11.3175,15.65895 9.7575,16.16395 8.0775,16.16395 C5.8475,16.16395 3.8325,15.26395 2.3725,13.80395 L2.3675,13.79395 L2.3575,13.78395 C0.8975,12.31895 0.0025,10.30395 0.0025,8.08395 C0.0025,5.84895 0.9025,3.83395 2.3675,2.37395 L2.3725,2.37395 L2.3875,2.35895 C3.8425,0.89895 5.8525,-0.00105 8.0775,-0.00105" id="Fill-1" fill="#000000" mask="url(#mask-2)"></path>
                </g>
            </g>
        </g>
    </g>
</svg>