<?xml version="1.0" encoding="UTF-8"?>
<svg width="86px" height="84px" viewBox="0 0 86 84" version="1.1" xmlns="http://www.w3.org/2000/svg" xmlns:xlink="http://www.w3.org/1999/xlink">
    <title>线下_icon</title>
    <defs>
        <path d="M25.9516172,0.000242459958 L25.9511284,23.1080658 C13.8566411,20.3635028 4.07502714,11.5295764 -3.97237798e-13,-9.28146449e-14 L25.9516172,0.000242459958 Z" id="path-1"></path>
        <filter x="-185.0%" y="-181.8%" width="469.9%" height="515.4%" filterUnits="objectBoundingBox" id="filter-2">
            <feOffset dx="0" dy="6" in="SourceAlpha" result="shadowOffsetOuter1"></feOffset>
            <feGaussianBlur stdDeviation="15" in="shadowOffsetOuter1" result="shadowBlurOuter1"></feGaussianBlur>
            <feColorMatrix values="0 0 0 0 0   0 0 0 0 0   0 0 0 0 0  0 0 0 0.1 0" type="matrix" in="shadowBlurOuter1"></feColorMatrix>
        </filter>
    </defs>
    <g id="mindspore小程序2.0" stroke="none" stroke-width="1" fill="none" fill-rule="evenodd">
        <g id="社区-社区活动" transform="translate(-1793.000000, 0.000000)">
            <g id="线下_icon" transform="translate(1823.000000, 24.000000)">
                <g id="Combined-Shape">
                    <use fill="black" fill-opacity="1" filter="url(#filter-2)" xlink:href="#path-1"></use>
                    <use fill="#6189FF" fill-rule="evenodd" xlink:href="#path-1"></use>
                </g>
                <g id="定位" transform="translate(12.000000, 3.000000)" fill="#FFFFFF" fill-rule="nonzero">
                    <path d="M7.57194972,2.41237314 C7.37313164,1.94358103 7.08955427,1.52187742 6.72749608,1.15981923 C6.3654379,0.797761034 5.94478069,0.514183676 5.47494217,0.315365592 C4.98940749,0.110269051 4.47352689,0.00562795525 3.94090371,0.00562795525 C3.40932695,0.00562795525 2.89344636,0.110269051 2.40686525,0.315365592 C1.93807315,0.514183676 1.51636954,0.797761044 1.15431134,1.15981923 C0.79225316,1.52187741 0.508675791,1.94253462 0.309857708,2.41237314 C0.104761167,2.89790782 0.000120071172,3.41378842 0.000120071172,3.9464116 C0.000120071172,4.84737143 0.629013058,6.12189997 1.87110285,7.73337283 C2.7741555,8.90326028 3.66151199,9.8125914 3.69918279,9.8513086 C3.83207698,9.98734203 4.05182328,9.98734203 4.18576388,9.8513086 C4.18576388,9.8513086 5.10974474,8.90326028 6.01175099,7.73232643 C7.25279438,6.12085356 7.88273377,4.84737143 7.88273377,3.94536519 C7.88169783,3.41378843 7.77705673,2.89790782 7.57194972,2.41237314 Z M6.681454,5.50556392 C6.39264458,6.04132633 5.98663713,6.64929109 5.47598859,7.31271563 C4.91092667,8.04729612 4.3395863,8.68769962 4.00264196,9.05289705 C3.96915681,9.08847502 3.91265063,9.08847502 3.88021188,9.05289705 C3.54431396,8.68874603 2.97611281,8.05043535 2.4110509,7.31794768 C1.90040236,6.65347673 1.49334849,6.04446556 1.20349267,5.50765674 C0.857130645,4.86725324 0.682380011,4.34195493 0.682380011,3.94536519 C0.682380011,3.07475128 1.02141716,2.25645792 1.6367068,1.64012186 C2.25199643,1.02483223 3.07133621,0.685795075 3.94195013,0.685795075 C4.81256404,0.685795075 5.6308574,1.02483223 6.24719346,1.64012186 C6.8624831,2.2554115 7.20152025,3.07475128 7.20152025,3.94536519 C7.20152025,4.34090853 7.02676961,4.86620683 6.681454,5.50556392 Z" id="形状"></path>
                    <path d="M3.96078552,2.03880443 C3.01169079,2.03880443 2.2394395,2.78280262 2.2394395,3.69736579 C2.2394395,4.13685838 2.42360783,4.57216534 2.74380959,4.89132068 C3.07133621,5.21780089 3.50350394,5.39778358 3.96078552,5.39778358 C4.41806711,5.39778358 4.85023484,5.21780089 5.17776146,4.89132068 C5.49796322,4.57216534 5.68213154,4.13685838 5.68213154,3.69736579 C5.68213154,2.78280262 4.90989073,2.03880443 3.96078552,2.03880443 Z" id="形状"></path>
                </g>
            </g>
        </g>
    </g>
</svg>